<?xml version="1.0" encoding="iso-8859-1"?>
<!-- Generator: Adobe Illustrator 19.0.0, SVG Export Plug-In . SVG Version: 6.00 Build 0)  -->
<svg version="1.1" id="Layer_1" xmlns="http://www.w3.org/2000/svg" xmlns:xlink="http://www.w3.org/1999/xlink" x="0px" y="0px"
	 viewBox="0 0 181.554 181.554" style="enable-background:new 0 0 181.554 181.554;" xml:space="preserve">
<g>
	<g>
		<g>
			<path d="M129.373,28.518L98.326,2.642c-4.231-3.522-10.865-3.522-15.096,0L52.182,28.518c-3.748,3.125-6.574,9.172-6.574,14.071
				v128.525c0,5.758,4.684,10.441,10.441,10.441h69.457c5.756,0,10.441-4.683,10.441-10.441V42.588
				C135.947,37.69,133.121,31.643,129.373,28.518z M128.999,171.114h-0.001c0,1.924-1.566,3.492-3.492,3.492H56.049
				c-1.926,0-3.492-1.568-3.492-3.492V42.588c0-2.793,1.941-6.956,4.074-8.731L87.678,7.981c0.826-0.689,1.963-1.031,3.1-1.031
				c1.137,0,2.273,0.343,3.1,1.032l31.047,25.876c2.17,1.808,4.074,5.887,4.074,8.73V171.114z"/>
			<path d="M90.778,49.52c7.664,0,13.898-6.233,13.898-13.898c0-7.665-6.235-13.898-13.898-13.898
				c-7.663,0-13.898,6.233-13.898,13.898C76.88,43.288,83.114,49.52,90.778,49.52z M90.778,28.674c3.832,0,6.949,3.118,6.949,6.949
				s-3.117,6.949-6.949,6.949c-3.832,0-6.949-3.118-6.949-6.949S86.945,28.674,90.778,28.674z"/>
			<path d="M121.031,106.132c-1.357-1.357-3.556-1.357-4.913,0L64.29,157.96c-1.357,1.357-1.357,3.556,0,4.913
				c0.679,0.679,1.568,1.018,2.457,1.018c0.889,0,1.778-0.339,2.457-1.018l51.829-51.827
				C122.388,109.687,122.388,107.489,121.031,106.132z"/>
			<path d="M85.566,119.012c0-7.665-6.235-13.898-13.898-13.898c-7.663,0-13.898,6.233-13.898,13.898s6.235,13.898,13.898,13.898
				C79.331,132.911,85.566,126.677,85.566,119.012z M64.718,119.012c0-3.831,3.117-6.949,6.949-6.949
				c3.832,0,6.949,3.118,6.949,6.949s-3.117,6.949-6.949,6.949C67.835,125.961,64.718,122.843,64.718,119.012z"/>
			<path d="M109.888,136.385c-7.664,0-13.898,6.233-13.898,13.898s6.235,13.898,13.898,13.898s13.898-6.233,13.898-13.898
				S117.551,136.385,109.888,136.385z M109.888,157.232c-3.832,0-6.949-3.118-6.949-6.949s3.117-6.949,6.949-6.949
				c3.832,0,6.949,3.118,6.949,6.949S113.72,157.232,109.888,157.232z"/>
		</g>
	</g>
</g>
<g>
</g>
<g>
</g>
<g>
</g>
<g>
</g>
<g>
</g>
<g>
</g>
<g>
</g>
<g>
</g>
<g>
</g>
<g>
</g>
<g>
</g>
<g>
</g>
<g>
</g>
<g>
</g>
<g>
</g>
</svg>
