<svg xmlns="http://www.w3.org/2000/svg" viewBox="0 0 227.636 227.636"><path d="M223.061 0H4.575A4.574 4.574 0 0 0 .001 4.574v218.488a4.574 4.574 0 0 0 4.574 4.574H137.83a4.573 4.573 0 0 0 0-9.148H9.149V111.881h63.798v43.849a4.574 4.574 0 0 0 9.148 0V59.96a4.574 4.574 0 0 0-9.148 0v42.773H9.149V9.148h124.108v57.271a4.573 4.573 0 0 0 4.573 4.574h48.372a4.573 4.573 0 0 0 0-9.148h-43.799V9.148h76.085v142.009H137.83a4.573 4.573 0 0 0 0 9.148h80.658v58.185h-32.286a4.573 4.573 0 0 0 0 9.148h36.859a4.573 4.573 0 0 0 4.573-4.574V4.574A4.572 4.572 0 0 0 223.061 0z"/></svg>