<svg xmlns="http://www.w3.org/2000/svg" viewBox="0 0 181.554 181.554"><path d="M129.373 28.518L98.326 2.642C94.095-.88 87.461-.88 83.23 2.642L52.182 28.518c-3.748 3.125-6.574 9.172-6.574 14.071v128.525c0 5.758 4.684 10.441 10.441 10.441h69.457c5.756 0 10.441-4.683 10.441-10.441V42.588c0-4.898-2.826-10.945-6.574-14.07zm-.374 142.596h-.001a3.497 3.497 0 0 1-3.492 3.492H56.049a3.497 3.497 0 0 1-3.492-3.492V42.588c0-2.793 1.941-6.956 4.074-8.731L87.678 7.981c.826-.689 1.963-1.031 3.1-1.031s2.273.343 3.1 1.032l31.047 25.876c2.17 1.808 4.074 5.887 4.074 8.73v128.526z"/><path d="M90.778 49.52c7.664 0 13.898-6.233 13.898-13.898s-6.235-13.898-13.898-13.898c-7.663 0-13.898 6.233-13.898 13.898 0 7.666 6.234 13.898 13.898 13.898zm0-20.846c3.832 0 6.949 3.118 6.949 6.949s-3.117 6.949-6.949 6.949-6.949-3.118-6.949-6.949 3.116-6.949 6.949-6.949zm30.253 77.458a3.473 3.473 0 0 0-4.913 0L64.29 157.96a3.473 3.473 0 1 0 4.914 4.913l51.829-51.827a3.476 3.476 0 0 0-.002-4.914zm-35.465 12.88c0-7.665-6.235-13.898-13.898-13.898-7.663 0-13.898 6.233-13.898 13.898s6.235 13.898 13.898 13.898c7.663.001 13.898-6.233 13.898-13.898zm-20.848 0a6.957 6.957 0 0 1 6.949-6.949c3.832 0 6.949 3.118 6.949 6.949s-3.117 6.949-6.949 6.949a6.957 6.957 0 0 1-6.949-6.949zm45.17 17.373c-7.664 0-13.898 6.233-13.898 13.898s6.235 13.898 13.898 13.898 13.898-6.233 13.898-13.898-6.235-13.898-13.898-13.898zm0 20.847c-3.832 0-6.949-3.118-6.949-6.949s3.117-6.949 6.949-6.949 6.949 3.118 6.949 6.949-3.117 6.949-6.949 6.949z"/></svg>